<svg width="18" height="18" viewBox="0 0 18 18" fill="none" xmlns="http://www.w3.org/2000/svg">
  <path d="M3.02767 3.51592C2.99807 3.44761 2.9897 3.37198 3.00363 3.29884C3.01756 3.22571 3.05316 3.15845 3.10581 3.10581C3.15845 3.05316 3.22571 3.01756 3.29884 3.00363C3.37198 2.9897 3.44761 2.99807 3.51592 3.02767L15.5159 7.90267C15.5889 7.9324 15.6506 7.98436 15.6924 8.05116C15.7342 8.11797 15.7538 8.19624 15.7486 8.27485C15.7434 8.35347 15.7135 8.42844 15.6633 8.48912C15.613 8.54981 15.5449 8.59312 15.4687 8.61292L10.8757 9.79792C10.6162 9.86464 10.3793 9.99965 10.1896 10.1889C9.99994 10.3782 9.86443 10.6148 9.79717 10.8742L8.61292 15.4687C8.59312 15.5449 8.54981 15.613 8.48912 15.6633C8.42844 15.7135 8.35347 15.7434 8.27485 15.7486C8.19624 15.7538 8.11797 15.7342 8.05116 15.6924C7.98436 15.6506 7.9324 15.5889 7.90267 15.5159L3.02767 3.51592Z" 
    stroke="currentColor" 
    fill="currentColor" 
    stroke-width="1.33" 
    stroke-linecap="round" 
    stroke-linejoin="round"/>
</svg>